<?xml version="1.0" encoding="UTF-8" standalone="no"?><!DOCTYPE svg PUBLIC "-//W3C//DTD SVG 1.1//EN"
        "http://www.w3.org/Graphics/SVG/1.1/DTD/svg11.dtd">
<svg viewBox="0 0 65 68" xmlns="http://www.w3.org/2000/svg" fill-rule="evenodd" clip-rule="evenodd"
     stroke-linejoin="round" stroke-miterlimit="1.414">
    <path d="M26.251 0c-1.085.015-2.017.956-2.203 1.828l-1.219 6.727a26.85 26.85 0 0 0-7.172 4.031l-6.352-2.461c-.978-.38-2.201.038-2.742.938L.305 21.305c-.529.892-.332 2.149.446 2.836l5.039 4.476c-.322 1.663-.539 3.375-.539 5.133 0 1.753.218 3.451.539 5.109L.751 43.336c-.789.689-.988 1.963-.446 2.859l6.258 10.242c.549.892 1.769 1.298 2.742.915l6.352-2.438c2.148 1.689 4.564 3.026 7.172 4.008l1.219 6.726c.184 1.025 1.162 1.847 2.203 1.852h12c1.048.007 2.041-.82 2.226-1.852l1.219-6.726c2.608-.982 5.024-2.319 7.172-4.008l6.352 2.438c.967.371 2.172-.033 2.718-.915l6.258-10.242c.548-.891.36-2.164-.422-2.859l-5.039-4.5c.314-1.659.516-3.35.516-5.086 0-1.741-.2-3.447-.516-5.109l5.039-4.5c.771-.693.958-1.949.422-2.836l-6.258-10.242c-.539-.889-1.746-1.305-2.718-.938l-6.352 2.461a26.85 26.85 0 0 0-7.172-4.031l-1.219-6.727C40.282.805 39.293-.007 38.251 0h-12zm1.898 4.5h8.227l1.101 6.023c.151.8.77 1.494 1.547 1.735 3 .943 5.72 2.517 8.039 4.547a2.299 2.299 0 0 0 2.297.398L55.079 15l4.289 7.055-4.57 4.078a2.296 2.296 0 0 0-.68 2.226 22.56 22.56 0 0 1 .633 5.391 22.56 22.56 0 0 1-.633 5.391c-.191.784.08 1.662.68 2.203l4.593 4.101-4.312 7.032-5.719-2.204a2.301 2.301 0 0 0-2.297.399c-2.319 2.029-5.039 3.604-8.039 4.547a2.3 2.3 0 0 0-1.547 1.734L36.376 63h-8.227l-1.101-6.047a2.299 2.299 0 0 0-1.547-1.734c-3-.943-5.72-2.518-8.039-4.547a2.301 2.301 0 0 0-2.297-.399l-5.742 2.204-4.289-7.032 4.593-4.078a2.295 2.295 0 0 0 .703-2.203 22.598 22.598 0 0 1-.679-5.414c0-1.866.251-3.677.679-5.414a2.298 2.298 0 0 0-.703-2.227l-4.593-4.078L9.446 15l5.719 2.203a2.299 2.299 0 0 0 2.297-.398c2.319-2.03 5.039-3.604 8.039-4.547a2.302 2.302 0 0 0 1.547-1.735L28.149 4.5zM32.251 18c-8.672 0-15.75 7.078-15.75 15.75s7.078 15.75 15.75 15.75 15.75-7.078 15.75-15.75S40.923 18 32.251 18zm0 4.5c6.24 0 11.25 5.01 11.25 11.25S38.491 45 32.251 45s-11.25-5.01-11.25-11.25 5.01-11.25 11.25-11.25z"
          fill-rule="nonzero"/>
</svg>